<?xml version="1.0" standalone="no"?>
<!DOCTYPE svg PUBLIC "-//W3C//DTD SVG 20010904//EN"
 "http://www.w3.org/TR/2001/REC-SVG-20010904/DTD/svg10.dtd">
<svg version="1.0" xmlns="http://www.w3.org/2000/svg"
 width="3000.000000pt" height="3000.000000pt" viewBox="0 0 3000.000000 3000.000000"
 preserveAspectRatio="xMidYMid meet">

<g transform="translate(0.000000,3000.000000) scale(0.100000,-0.100000)"
fill="#000000" stroke="none">
<path d="M21428 19398 c-21 -21 -57 -23 -82 -5 -25 18 -93 10 -99 -13 -5 -21
-93 -38 -110 -21 -19 19 -57 13 -57 -8 0 -10 -7 -22 -16 -25 -23 -9 -62 -7
-68 2 -8 13 -66 1 -66 -13 0 -7 -7 -16 -16 -19 -22 -8 -54 -7 -54 2 0 4 -18 6
-40 4 -24 -3 -40 -9 -40 -17 0 -7 -7 -18 -16 -26 -12 -10 -20 -10 -35 -1 -10
7 -34 12 -53 12 -28 0 -35 -4 -38 -22 -3 -21 -7 -23 -60 -20 -48 3 -58 1 -58
-12 0 -23 -47 -43 -62 -28 -21 21 -56 14 -60 -10 -3 -24 -36 -37 -47 -20 -9
14 -71 2 -71 -14 0 -19 -50 -38 -64 -24 -19 19 -54 12 -58 -12 -2 -15 -11 -24
-25 -26 -13 -2 -23 1 -23 6 0 5 -14 7 -30 4 -21 -3 -30 -9 -28 -21 3 -13 -5
-15 -49 -13 -47 3 -53 1 -53 -16 0 -23 -29 -37 -44 -22 -19 19 -54 12 -58 -12
-3 -21 -8 -23 -50 -20 -38 2 -48 0 -48 -12 0 -19 -36 -40 -45 -26 -3 5 -17 10
-30 10 -17 0 -25 -6 -27 -22 -3 -20 -8 -23 -45 -21 -34 1 -42 -2 -47 -20 -4
-15 -8 -19 -16 -11 -14 14 -70 5 -70 -11 0 -22 -29 -40 -42 -27 -7 7 -22 12
-35 12 -18 0 -23 -6 -23 -26 0 -25 -2 -26 -39 -20 -33 5 -39 3 -44 -13 -4 -16
-11 -19 -45 -14 -37 5 -41 3 -44 -18 -3 -21 -8 -24 -39 -22 -29 2 -38 -2 -42
-17 -4 -16 -11 -18 -41 -13 -32 5 -36 3 -36 -16 0 -11 -4 -21 -10 -21 -5 0
-10 5 -10 12 0 9 -3 9 -12 0 -7 -7 -22 -12 -35 -12 -17 0 -23 -6 -23 -21 0
-19 -4 -20 -35 -15 -31 6 -35 4 -35 -14 0 -18 -4 -20 -40 -14 -36 6 -40 4 -40
-14 0 -22 -16 -39 -22 -22 -6 17 -47 -1 -50 -23 -2 -15 -13 -23 -38 -28 -19
-4 -36 -12 -38 -18 -2 -6 -15 -11 -28 -11 -13 0 -32 -8 -42 -17 -18 -19 -69
-41 -112 -50 -14 -3 -29 -12 -33 -20 -6 -10 -19 -12 -44 -7 -33 6 -36 5 -30
-15 6 -24 -10 -38 -26 -22 -21 21 -47 13 -47 -14 0 -20 -5 -25 -24 -25 -13 0
-26 -7 -30 -15 -4 -12 -15 -14 -47 -9 -29 5 -40 4 -35 -4 13 -21 -5 -42 -31
-36 -19 5 -25 2 -30 -16 -5 -18 -11 -21 -32 -17 -21 4 -29 1 -36 -16 -6 -12
-19 -23 -30 -25 -11 -2 -25 -10 -31 -17 -15 -19 -68 -39 -72 -27 -5 16 -52
-11 -52 -30 0 -10 -4 -18 -10 -18 -5 0 -10 5 -10 10 0 6 -8 5 -20 -2 -11 -7
-20 -21 -20 -30 0 -10 -7 -18 -15 -18 -8 0 -15 4 -15 10 0 18 -29 -2 -32 -23
-3 -23 -54 -43 -62 -24 -3 8 -9 6 -16 -5 -6 -10 -17 -18 -25 -18 -8 0 -12 -6
-9 -14 3 -8 0 -17 -7 -22 -7 -4 -14 -3 -16 3 -7 21 -43 1 -43 -23 0 -16 -6
-25 -17 -26 -65 -6 -80 -14 -88 -45 -4 -19 -9 -23 -18 -14 -17 17 -27 14 -37
-13 -8 -23 -70 -63 -70 -46 0 4 -9 6 -20 3 -13 -3 -20 -14 -20 -28 0 -16 -8
-26 -22 -31 -13 -4 -26 -12 -30 -18 -5 -6 -8 -2 -8 12 0 12 -4 22 -10 22 -5 0
-10 -7 -10 -15 0 -8 -4 -15 -10 -15 -5 0 -10 -9 -10 -20 0 -20 -30 -41 -65
-45 -11 -1 -23 -3 -27 -4 -5 0 -8 -10 -8 -20 0 -21 -62 -59 -68 -42 -2 7 -10
6 -22 -1 -10 -6 -16 -17 -13 -23 2 -7 -15 -27 -39 -44 -23 -17 -44 -27 -46
-21 -6 16 -32 12 -32 -5 0 -8 -7 -15 -16 -15 -10 0 -14 -6 -11 -14 4 -9 -8
-25 -30 -42 -21 -16 -38 -23 -40 -17 -5 15 -43 4 -43 -13 0 -8 -4 -14 -9 -14
-5 0 -11 -10 -15 -22 -7 -30 -56 -57 -90 -51 -21 4 -26 2 -26 -16 0 -11 -4
-21 -10 -21 -5 0 -10 -8 -10 -17 -1 -24 -82 -76 -93 -60 -5 9 -10 7 -18 -5 -5
-10 -17 -18 -24 -18 -8 0 -15 -7 -15 -15 0 -8 -4 -15 -10 -15 -5 0 -10 -8 -10
-19 0 -10 -17 -31 -37 -47 -21 -16 -47 -37 -58 -47 -11 -10 -21 -13 -23 -7 -6
16 -32 12 -32 -5 0 -8 -7 -15 -15 -15 -8 0 -15 -7 -15 -15 0 -8 -4 -15 -10
-15 -5 0 -10 -8 -10 -19 0 -10 -21 -36 -47 -57 -26 -21 -86 -74 -135 -117 -48
-43 -85 -71 -82 -63 4 11 0 16 -10 16 -9 0 -16 -8 -16 -20 0 -11 -6 -20 -14
-20 -8 0 -16 -7 -20 -15 -3 -8 -12 -15 -21 -15 -8 0 -15 -9 -15 -20 0 -11 -7
-20 -15 -20 -8 0 -15 -7 -15 -15 0 -8 -4 -15 -10 -15 -5 0 -10 -9 -10 -19 0
-25 -18 -37 -33 -22 -6 6 -27 11 -47 11 -27 0 -38 -5 -45 -22 -9 -21 -15 -23
-87 -20 -69 3 -77 1 -83 -17 -4 -14 -18 -21 -56 -26 -33 -5 -55 -3 -62 4 -16
16 -57 14 -57 -4 0 -27 -38 -37 -111 -30 -58 6 -69 5 -69 -8 0 -9 -8 -18 -17
-21 -51 -14 -82 -16 -88 -7 -10 17 -65 14 -65 -4 0 -25 -48 -36 -122 -29 -58
6 -68 4 -68 -9 0 -20 -58 -38 -82 -26 -9 5 -32 9 -51 9 -26 0 -36 -5 -40 -19
-6 -23 -63 -39 -80 -22 -6 6 -27 11 -47 11 -27 0 -38 -5 -45 -22 -7 -17 -20
-24 -47 -26 -21 -2 -38 1 -38 5 0 16 -75 1 -87 -17 -15 -21 -100 -37 -116 -21
-17 17 -57 13 -57 -4 0 -24 -49 -37 -108 -30 -45 6 -55 4 -70 -13 -19 -22 -97
-38 -107 -22 -10 16 -65 12 -65 -5 0 -21 -76 -42 -101 -27 -30 19 -66 15 -72
-8 -7 -27 -25 -25 -30 3 l-4 22 -8 -22 c-4 -13 -14 -23 -21 -23 -8 0 -14 -9
-14 -20 0 -11 -3 -20 -7 -20 -8 0 -1628 -1613 -1910 -1902 -150 -153 -163
-169 -163 -203 0 -43 -15 -75 -35 -75 -9 0 -15 -10 -15 -24 0 -18 6 -25 23
-28 18 -2 23 -11 27 -48 7 -60 43 -115 95 -146 33 -19 42 -29 38 -44 -4 -15 0
-20 15 -20 12 0 24 5 27 10 4 6 55 10 121 10 69 0 114 -4 114 -10 0 -5 12 -10
26 -10 21 0 25 4 21 20 -6 24 -1 28 57 39 35 6 48 5 57 -5 15 -19 59 -18 59 1
0 8 9 19 19 25 25 13 101 13 101 0 0 -5 11 -10 25 -10 18 0 25 5 25 19 0 10 7
22 16 25 23 9 102 7 108 -2 9 -16 64 -1 69 18 6 23 73 38 90 21 17 -17 77 -14
77 4 0 29 89 50 105 25 3 -5 21 -10 40 -10 27 0 34 4 37 22 4 26 63 47 81 29
6 -6 28 -11 49 -11 31 0 38 4 38 19 0 10 7 22 16 25 25 10 102 7 109 -4 3 -5
17 -10 31 -10 17 0 24 5 24 19 0 11 4 22 8 25 12 7 90 7 133 0 30 -5 37 -3 41
14 7 24 83 41 101 23 6 -6 24 -11 39 -11 21 0 28 5 28 19 0 11 9 21 23 25 35
9 85 7 92 -4 3 -5 22 -10 41 -10 27 0 34 4 34 20 0 23 55 42 82 29 29 -15 88
-11 88 6 0 32 115 50 127 19 6 -16 -39 -118 -57 -129 -6 -3 -10 -17 -10 -30 0
-12 -7 -25 -15 -29 -8 -3 -15 -14 -15 -24 0 -11 -9 -31 -20 -45 -11 -14 -20
-34 -20 -45 0 -11 -7 -25 -15 -32 -8 -7 -15 -22 -15 -35 0 -12 -9 -30 -20 -40
-11 -10 -20 -30 -20 -45 0 -16 -7 -30 -15 -34 -9 -3 -15 -18 -15 -36 0 -18 -6
-33 -15 -36 -8 -4 -15 -16 -15 -29 0 -12 -9 -32 -20 -45 -11 -13 -20 -36 -20
-51 0 -16 -7 -32 -17 -38 -10 -5 -18 -20 -18 -33 -1 -13 -6 -31 -11 -38 -5 -8
-14 -33 -19 -55 -7 -25 -19 -44 -33 -50 -20 -9 -22 -17 -22 -83 0 -62 2 -72
16 -70 9 2 20 -4 24 -12 22 -44 40 -93 40 -110 0 -11 7 -20 15 -20 8 0 15 -8
15 -19 0 -11 9 -21 21 -24 12 -3 18 -10 14 -16 -3 -7 2 -11 14 -11 14 0 21 -6
21 -20 0 -11 7 -20 15 -20 8 0 15 -7 15 -15 0 -8 7 -15 15 -15 9 0 18 -7 21
-15 4 -8 12 -15 20 -15 8 0 14 -9 14 -20 0 -11 7 -20 15 -20 9 0 18 -7 21 -15
4 -8 12 -15 20 -15 8 0 14 -9 14 -20 0 -11 7 -20 15 -20 8 0 15 -7 15 -15 0
-8 9 -15 20 -15 11 0 20 -7 20 -15 0 -8 7 -15 15 -15 8 0 15 -9 15 -20 0 -11
7 -20 15 -20 9 0 18 -7 21 -15 4 -8 12 -15 20 -15 8 0 14 -8 14 -19 0 -11 9
-21 21 -24 12 -3 18 -10 14 -16 -3 -7 2 -11 14 -11 14 0 21 -6 21 -20 0 -11 7
-20 15 -20 8 0 15 -7 15 -15 0 -8 -7 -15 -15 -15 -8 0 -15 -7 -15 -15 0 -8 -6
-15 -13 -15 -7 0 -19 -16 -26 -35 -10 -29 -17 -35 -41 -35 -23 0 -28 -4 -23
-16 4 -10 -2 -17 -16 -21 -13 -3 -20 -11 -17 -19 3 -7 -7 -28 -22 -46 -35 -42
-56 -59 -60 -47 -6 15 -22 10 -22 -6 0 -8 -8 -15 -17 -15 -12 0 -18 -8 -19
-24 -2 -26 -42 -86 -58 -86 -6 0 -21 -15 -33 -34 -12 -19 -36 -40 -52 -47 -17
-8 -34 -23 -37 -34 -4 -11 -15 -31 -25 -44 -11 -13 -19 -35 -19 -50 0 -46 -11
-71 -31 -71 -14 0 -19 -7 -19 -25 0 -14 6 -25 13 -25 14 0 33 -40 43 -90 5
-20 23 -49 46 -72 21 -20 38 -41 38 -47 0 -5 14 -14 30 -20 20 -7 30 -17 30
-30 0 -16 6 -21 24 -21 14 0 28 5 32 11 4 8 32 10 80 7 64 -4 74 -3 79 13 3
10 20 21 38 25 23 5 62 37 134 112 59 60 103 98 103 88 0 -9 5 -16 10 -16 6 0
10 7 10 15 0 8 7 15 16 15 9 0 14 6 11 13 -8 22 31 66 53 60 14 -4 20 0 20 11
0 9 6 19 14 22 8 3 17 17 21 32 4 15 10 21 12 15 6 -18 23 -16 23 1 0 8 3 16
8 18 4 2 14 17 22 33 9 17 21 31 28 31 7 1 18 2 25 3 11 1 24 25 41 74 8 24
30 17 34 -11 2 -12 8 -22 13 -22 5 0 9 -9 9 -20 0 -11 7 -20 15 -20 9 0 18 -7
21 -15 4 -8 12 -15 20 -15 8 0 14 -9 14 -20 0 -11 7 -20 15 -20 8 0 15 -7 15
-15 0 -8 9 -15 20 -15 11 0 20 -7 20 -15 0 -8 7 -15 15 -15 8 0 15 -9 15 -20
0 -11 7 -20 15 -20 9 0 18 -7 21 -15 4 -8 12 -15 20 -15 8 0 14 -8 14 -19 0
-11 9 -21 21 -24 12 -3 18 -10 14 -16 -3 -7 2 -11 14 -11 14 0 21 -6 21 -20 0
-11 7 -20 15 -20 8 0 15 -7 15 -15 0 -8 9 -15 20 -15 11 0 20 -7 20 -15 0 -8
7 -15 15 -15 8 0 15 -9 15 -20 0 -11 7 -20 15 -20 9 0 18 -7 21 -15 4 -8 12
-15 20 -15 8 0 14 -9 14 -20 0 -11 7 -20 15 -20 8 0 15 -7 15 -16 0 -13 7 -15
40 -9 35 6 40 5 40 -13 0 -21 32 -40 38 -23 4 13 158 15 166 2 10 -15 46 0 46
19 0 20 19 30 55 30 13 0 28 8 34 18 8 14 13 15 30 5 31 -19 41 -16 41 12 0
24 25 36 32 15 5 -16 48 1 48 20 0 19 19 30 50 30 9 0 23 7 30 15 7 8 25 15
41 15 19 0 32 7 40 21 8 15 14 18 22 10 18 -18 47 -13 47 8 0 23 16 36 25 21
11 -18 45 -11 45 9 0 22 16 36 24 22 10 -16 46 0 46 20 0 20 16 26 22 9 6 -17
48 1 48 21 0 12 7 18 18 17 40 -3 52 3 53 25 0 19 2 20 11 6 9 -13 16 -14 34
-5 13 6 24 19 24 28 0 21 14 30 34 22 23 -9 20 -45 -4 -51 -22 -6 -26 -33 -9
-61 7 -12 8 -32 2 -62 -7 -35 -13 -44 -27 -42 -16 3 -17 -3 -11 -62 9 -81 1
-116 -25 -116 -21 0 -29 -34 -10 -45 15 -9 12 -96 -4 -126 -8 -15 -17 -59 -21
-98 -4 -40 -13 -78 -21 -86 -9 -9 -14 -38 -14 -88 0 -54 -4 -78 -15 -87 -10
-8 -15 -32 -16 -69 -1 -79 -10 -105 -38 -109 -20 -3 -22 -8 -16 -30 4 -15 8
-52 9 -82 1 -50 -1 -55 -21 -58 -17 -2 -23 -10 -23 -27 0 -13 5 -27 10 -30 11
-7 13 -67 4 -102 -4 -14 -14 -23 -25 -23 -21 0 -27 -38 -8 -57 14 -14 0 -113
-17 -120 -10 -4 -14 -25 -14 -75 0 -39 -6 -84 -14 -101 -8 -18 -16 -63 -19
-101 -3 -48 -10 -72 -20 -78 -12 -6 -15 -26 -15 -83 1 -56 -3 -80 -15 -93 -22
-24 -24 -200 -2 -208 9 -4 17 -27 21 -55 4 -27 11 -52 15 -55 5 -3 7 -10 4
-15 -4 -5 1 -9 9 -9 9 0 16 8 16 17 0 14 3 13 16 -5 8 -12 26 -22 39 -22 14 0
29 -9 35 -20 9 -17 21 -20 90 -20 47 0 80 -4 80 -10 0 -5 12 -10 26 -10 20 0
25 4 22 22 -2 16 4 23 26 29 25 7 121 99 600 575 655 651 1470 1475 1477 1492
5 13 17 22 29 22 19 0 21 4 15 44 -9 59 1 89 26 81 14 -5 19 -2 19 14 0 11 -5
23 -11 27 -14 8 -7 128 9 147 5 6 12 42 16 79 8 82 13 98 33 98 13 0 14 10 8
55 -9 73 1 115 26 115 14 0 19 7 19 29 0 17 -5 33 -11 37 -7 4 -8 20 -4 43 10
58 16 71 30 71 11 0 13 18 12 77 -2 72 0 79 21 88 24 11 28 35 11 63 -14 22
-4 106 15 124 7 7 12 36 12 63 0 77 11 107 34 100 15 -5 20 -2 20 14 0 11 -5
23 -11 27 -14 8 -7 121 9 150 6 10 14 49 17 86 4 39 12 72 21 79 10 8 14 33
14 81 0 76 12 110 35 102 18 -7 21 37 4 64 -7 12 -8 32 -2 62 7 36 13 44 27
42 16 -3 18 2 12 35 -13 81 -5 143 20 143 8 0 14 7 14 15 0 8 9 15 21 15 11 0
18 4 14 9 -3 6 4 15 15 21 11 6 20 17 20 25 0 8 6 15 14 15 8 0 17 12 21 27 3
15 28 51 53 78 69 75 123 138 155 179 15 20 37 36 47 36 11 0 20 5 20 10 0 6
7 10 15 10 8 0 15 6 16 13 2 29 8 47 21 60 7 8 36 43 63 80 28 36 62 71 78 78
15 6 27 19 27 28 0 22 88 141 104 141 7 0 26 26 42 57 18 34 41 63 59 73 19
10 32 27 36 46 7 37 48 94 66 94 8 0 16 8 19 18 19 56 30 75 51 83 12 4 23 16
23 24 0 25 29 75 43 75 7 0 23 23 34 50 13 29 28 50 37 50 9 0 19 15 26 40 10
38 33 70 49 70 5 0 11 14 15 31 3 17 18 43 34 57 15 15 33 46 40 69 7 24 22
47 32 53 11 6 20 20 20 31 0 13 8 23 20 26 14 4 24 19 31 49 6 23 20 50 30 60
10 9 19 25 19 35 0 11 9 24 20 31 11 7 20 19 20 26 0 13 27 66 60 117 11 17
26 44 34 61 8 17 19 35 25 38 6 4 11 17 11 29 0 12 9 28 20 35 11 7 20 21 20
31 0 10 7 24 15 31 8 7 15 23 15 35 0 13 10 30 24 38 16 11 26 30 31 57 4 22
12 46 19 53 7 7 16 25 20 41 4 17 13 35 20 40 8 6 19 33 25 60 7 28 23 60 37
72 13 13 24 34 24 48 0 14 8 30 19 35 11 6 21 26 25 51 3 22 11 40 16 40 6 0
10 6 10 14 0 7 7 27 15 42 8 16 15 37 15 47 0 9 6 17 14 17 15 0 26 21 26 49
0 10 9 26 20 36 11 10 20 30 20 45 0 16 7 30 15 34 9 3 15 18 15 34 0 16 7 35
15 42 8 7 15 25 15 41 0 18 7 32 20 39 14 7 20 21 20 44 0 19 7 39 15 46 8 7
15 24 15 37 0 14 9 36 20 50 11 14 20 35 20 47 0 11 7 30 15 40 8 11 15 33 15
48 0 16 7 31 15 34 9 4 15 19 15 40 0 22 7 40 20 51 12 10 20 30 20 48 0 16 7
39 15 49 8 11 15 32 15 47 0 14 6 32 14 38 7 6 16 29 19 51 3 22 12 47 21 55
9 10 16 33 16 55 0 24 5 40 15 44 10 3 15 19 15 42 0 21 8 46 20 61 12 15 20
41 20 63 0 21 7 43 15 50 8 7 15 27 15 45 0 46 9 65 31 65 21 0 24 16 10 54
-8 19 -6 30 10 49 12 16 19 41 19 69 0 51 11 71 33 62 20 -7 22 13 6 50 -10
20 -8 32 10 66 12 24 21 59 21 86 0 30 5 46 15 50 11 4 15 21 15 58 0 28 6 60
14 71 7 11 16 45 20 77 8 73 14 88 33 81 14 -5 15 2 9 51 -10 74 0 116 25 116
22 0 26 39 7 70 -9 15 -9 30 0 67 27 108 -16 257 -84 294 -13 7 -24 20 -24 30
0 20 -34 31 -49 16 -8 -8 -11 -5 -11 11 0 12 -6 22 -14 22 -8 0 -16 4 -18 8
-1 4 -11 0 -20 -10z m-445 -714 c-1 -30 -11 -72 -43 -184 -10 -36 -26 -92 -35
-125 -26 -94 -57 -196 -71 -238 -8 -20 -14 -46 -14 -57 0 -11 -6 -34 -14 -52
-8 -18 -24 -67 -37 -108 -12 -41 -28 -88 -34 -105 -19 -45 -36 -96 -47 -140
-6 -22 -15 -45 -20 -52 -6 -7 -14 -27 -18 -45 -5 -18 -20 -64 -35 -103 -15
-38 -29 -82 -32 -97 -3 -15 -11 -33 -19 -39 -8 -6 -14 -20 -14 -30 0 -11 -9
-36 -20 -56 -11 -21 -20 -45 -20 -54 0 -9 -7 -22 -15 -29 -8 -7 -15 -22 -15
-34 0 -11 -10 -41 -22 -66 -12 -25 -28 -61 -36 -80 -8 -19 -21 -48 -28 -63 -8
-16 -14 -33 -14 -39 0 -6 -11 -34 -24 -62 -21 -46 -55 -120 -106 -231 -28 -62
-90 -188 -100 -205 -5 -8 -27 -53 -50 -100 -23 -47 -45 -92 -50 -100 -5 -8
-16 -28 -24 -45 -39 -79 -79 -155 -111 -210 -19 -33 -46 -82 -60 -110 -15 -27
-32 -57 -39 -65 -7 -8 -17 -26 -24 -40 -7 -14 -18 -34 -24 -45 -23 -34 -62
-99 -73 -120 -24 -43 -41 -71 -72 -117 -18 -26 -33 -50 -33 -53 0 -7 -256
-387 -332 -491 -139 -193 -412 -534 -542 -675 -172 -189 -220 -239 -363 -380
-209 -207 -227 -223 -394 -369 -246 -214 -479 -395 -774 -600 -66 -46 -141
-99 -167 -117 -26 -18 -50 -33 -53 -33 -3 0 -27 -15 -53 -32 -59 -41 -61 -42
-200 -125 -63 -37 -126 -76 -140 -85 -15 -10 -38 -22 -51 -28 -13 -6 -43 -23
-65 -38 -23 -15 -66 -40 -96 -55 -30 -16 -100 -53 -155 -83 -55 -29 -127 -67
-160 -84 -33 -17 -67 -35 -75 -40 -8 -5 -22 -11 -30 -14 -8 -3 -22 -10 -30
-15 -16 -10 -228 -111 -290 -139 -19 -8 -51 -23 -71 -34 -20 -10 -43 -18 -50
-18 -7 0 -20 -6 -28 -13 -9 -7 -35 -20 -59 -27 l-43 -14 -195 195 c-107 106
-194 201 -194 209 0 9 191 206 425 440 483 483 471 466 463 605 -6 95 -35 155
-101 209 -70 56 -186 82 -249 57 -13 -5 -36 -12 -53 -16 -22 -5 -142 -118
-466 -441 -239 -239 -440 -434 -445 -434 -15 0 -404 394 -404 409 0 7 8 30 19
50 33 64 61 128 61 138 0 6 7 16 15 23 8 7 15 23 15 36 0 12 4 26 10 29 5 3
20 30 32 58 30 69 234 473 253 500 8 12 15 29 15 38 0 10 4 19 8 21 7 3 32 43
92 153 22 41 104 182 150 258 48 81 86 139 185 290 54 84 104 160 110 169 39
65 278 388 390 526 130 162 151 187 224 272 147 172 216 245 411 441 199 200
277 272 447 415 44 38 105 89 134 114 30 25 85 69 124 99 216 168 291 225 335
256 28 19 74 52 103 72 47 34 266 180 313 210 16 11 81 51 142 88 10 6 37 24
62 40 25 16 65 40 90 54 25 13 47 27 50 30 3 4 16 12 30 19 14 6 52 28 85 47
33 20 74 42 90 51 17 8 48 26 70 39 22 13 47 27 55 30 8 4 22 11 30 16 8 5 42
22 75 39 33 17 67 35 75 40 8 5 40 21 70 35 52 25 65 32 108 55 32 17 97 49
122 59 14 6 32 15 40 20 23 13 159 77 215 101 28 12 62 28 77 36 14 8 33 14
41 14 8 0 20 7 27 15 7 8 20 15 29 15 9 0 29 7 45 15 15 8 33 15 39 15 5 0 31
10 56 21 52 25 82 37 161 69 30 12 68 28 83 36 16 8 34 14 40 14 11 0 93 30
142 51 11 5 34 13 50 18 17 6 62 21 100 36 39 14 84 30 100 34 17 4 40 13 52
19 12 7 29 12 38 12 9 0 31 6 48 14 40 17 121 45 167 56 19 5 53 15 75 24 22
8 49 15 61 16 11 0 25 5 30 10 6 6 33 15 60 19 27 5 63 13 79 19 115 38 163
52 180 52 10 0 37 6 60 14 53 18 117 34 130 31 6 -1 9 -15 8 -31z m-5903
-2863 c0 -6 -67 -97 -148 -203 -82 -106 -175 -231 -207 -278 -32 -47 -77 -111
-99 -143 -23 -32 -45 -65 -51 -74 -5 -9 -32 -51 -60 -93 -27 -41 -55 -84 -62
-95 -7 -11 -37 -60 -68 -109 -30 -48 -55 -92 -55 -96 0 -4 -15 -19 -33 -33
-24 -18 -50 -27 -93 -30 -66 -6 -194 -31 -268 -53 -26 -8 -62 -14 -80 -14 -17
0 -60 -7 -96 -15 -36 -8 -104 -24 -152 -35 -48 -11 -99 -20 -113 -20 -15 0
-54 -7 -88 -14 -122 -29 -223 -50 -272 -56 -27 -4 -70 -12 -95 -18 -53 -13
-121 -26 -243 -47 -48 -9 -99 -20 -113 -25 -33 -13 -114 -13 -114 0 0 8 637
644 1078 1075 159 156 128 140 337 175 39 6 90 18 115 26 25 8 61 14 81 14 20
0 56 7 79 15 23 8 57 15 74 15 17 0 63 9 101 20 38 11 86 20 106 20 20 0 56 7
79 15 23 8 56 15 71 15 16 0 62 9 101 20 40 11 91 20 113 21 22 0 56 7 75 14
41 16 100 19 100 6z m3026 -3028 c-4 -10 -11 -48 -16 -85 -4 -36 -11 -72 -15
-78 -4 -6 -13 -46 -20 -88 -17 -101 -33 -182 -50 -262 -8 -36 -17 -83 -20
-105 -3 -22 -12 -69 -20 -105 -27 -128 -36 -176 -44 -235 -5 -33 -16 -84 -25
-114 -9 -30 -16 -69 -16 -86 0 -17 -7 -54 -16 -81 -15 -43 -55 -88 -358 -394
-187 -190 -458 -463 -600 -608 -143 -144 -265 -261 -270 -259 -14 5 -10 35 29
217 8 36 17 88 21 115 4 28 13 67 20 89 8 21 14 53 14 70 0 17 6 60 14 96 26
114 76 358 83 405 2 17 13 71 23 120 36 177 41 201 50 264 5 36 14 78 20 95 5
17 14 60 20 96 5 36 16 88 23 115 14 53 19 57 158 144 107 68 156 99 269 174
120 80 150 100 265 182 146 103 263 191 335 250 102 84 140 104 126 68z"/>
<path d="M18185 16999 c-16 -3 -55 -7 -85 -8 -30 0 -75 -7 -100 -15 -25 -8
-65 -20 -89 -27 -59 -17 -200 -89 -258 -131 -144 -104 -252 -231 -328 -388
-15 -30 -34 -67 -41 -82 -8 -14 -14 -35 -14 -46 0 -11 -6 -35 -14 -53 -35 -84
-45 -382 -16 -489 38 -142 40 -149 84 -240 89 -187 253 -357 437 -453 139 -72
291 -114 454 -124 87 -5 102 -3 300 37 41 8 112 33 143 49 9 5 40 20 67 32
120 55 282 196 365 319 114 168 168 323 185 540 8 94 -21 335 -43 363 -5 7
-12 25 -16 40 -11 47 -67 158 -114 227 -91 134 -249 277 -373 337 -99 48 -160
73 -179 73 -10 0 -33 6 -51 14 -19 7 -74 16 -124 20 -49 3 -106 8 -125 9 -19
2 -48 0 -65 -4z m251 -620 c149 -71 264 -244 264 -400 0 -53 -29 -158 -60
-219 -69 -135 -273 -251 -414 -236 -115 12 -197 50 -284 130 -226 210 -170
579 110 718 87 44 105 48 225 42 77 -3 102 -8 159 -35z"/>
<path d="M12630 12721 c0 -12 -8 -24 -17 -27 -10 -3 -26 -10 -35 -15 -13 -7
-16 -5 -12 6 4 9 0 15 -10 15 -9 0 -16 -7 -16 -15 0 -8 -7 -15 -15 -15 -8 0
-15 -7 -15 -15 0 -8 -9 -15 -20 -15 -13 0 -20 -7 -20 -20 0 -11 -7 -20 -15
-20 -8 0 -15 -7 -15 -15 0 -8 -9 -15 -20 -15 -11 0 -19 -3 -19 -7 3 -21 -2
-33 -16 -33 -8 0 -15 -7 -15 -15 0 -8 -6 -15 -14 -15 -7 0 -16 -9 -19 -20 -3
-11 -12 -20 -21 -20 -9 0 -16 -7 -16 -15 0 -8 -7 -15 -15 -15 -8 0 -15 -7 -15
-15 0 -8 -9 -15 -20 -15 -13 0 -20 -7 -20 -20 0 -11 -7 -20 -15 -20 -8 0 -15
-7 -15 -15 0 -8 -9 -15 -20 -15 -13 0 -18 -5 -13 -16 4 -10 -1 -17 -16 -21
-11 -3 -21 -12 -21 -19 0 -8 -7 -14 -15 -14 -8 0 -15 -7 -15 -15 0 -8 -9 -15
-20 -15 -13 0 -20 -7 -20 -20 0 -11 -7 -20 -15 -20 -8 0 -15 -7 -15 -15 0 -8
-9 -15 -20 -15 -11 0 -19 -3 -19 -7 3 -21 -2 -33 -16 -33 -8 0 -15 -7 -15 -15
0 -8 -9 -15 -20 -15 -13 0 -18 -5 -13 -16 4 -10 -1 -17 -16 -21 -11 -3 -21
-12 -21 -19 0 -8 -7 -14 -15 -14 -8 0 -15 -7 -15 -15 0 -8 -9 -15 -20 -15 -13
0 -20 -7 -20 -20 0 -11 -7 -20 -15 -20 -8 0 -15 -7 -15 -15 0 -8 -9 -15 -20
-15 -13 0 -18 -5 -13 -16 4 -10 -1 -17 -16 -21 -11 -3 -21 -12 -21 -19 0 -8
-7 -14 -15 -14 -8 0 -15 -7 -15 -15 0 -8 -9 -15 -20 -15 -13 0 -20 -7 -20 -20
0 -11 -7 -20 -15 -20 -8 0 -15 -7 -15 -15 0 -8 -9 -15 -20 -15 -11 0 -19 -3
-19 -7 3 -21 -2 -33 -16 -33 -8 0 -15 -7 -15 -15 0 -8 -9 -15 -20 -15 -13 0
-18 -5 -13 -16 4 -10 -1 -17 -16 -21 -11 -3 -21 -12 -21 -19 0 -8 -7 -14 -15
-14 -8 0 -15 -7 -15 -15 0 -8 -9 -15 -20 -15 -13 0 -20 -7 -20 -20 0 -11 -7
-20 -15 -20 -8 0 -15 -7 -15 -15 0 -8 -9 -15 -20 -15 -13 0 -18 -5 -13 -16 4
-10 -1 -17 -16 -21 -11 -3 -21 -12 -21 -19 0 -8 -7 -14 -15 -14 -8 0 -15 -7
-15 -15 0 -8 -9 -15 -20 -15 -13 0 -20 -7 -20 -20 0 -11 -7 -20 -15 -20 -8 0
-15 -7 -15 -15 0 -8 -9 -15 -20 -15 -11 0 -19 -3 -19 -7 3 -21 -2 -33 -16 -33
-8 0 -15 -7 -15 -15 0 -8 -9 -15 -20 -15 -13 0 -18 -5 -13 -16 4 -10 -1 -17
-16 -21 -11 -3 -21 -12 -21 -19 0 -8 -7 -14 -15 -14 -8 0 -15 -7 -15 -15 0 -8
-9 -15 -20 -15 -13 0 -20 -7 -20 -20 0 -11 -7 -20 -15 -20 -8 0 -15 -7 -15
-15 0 -8 -9 -15 -20 -15 -11 0 -19 -3 -19 -7 3 -21 -2 -33 -16 -33 -8 0 -15
-7 -15 -15 0 -8 -7 -15 -15 -15 -8 0 -15 -7 -15 -15 0 -8 -8 -15 -18 -15 -14
0 -22 -13 -32 -56 -8 -31 -21 -64 -31 -73 -12 -12 -18 -41 -22 -114 -5 -87 -4
-97 11 -95 12 2 18 -5 20 -22 4 -27 78 -110 99 -110 7 0 13 -11 13 -25 0 -18
5 -25 18 -25 10 0 21 3 25 6 8 8 216 8 224 0 14 -13 31 -5 37 19 4 14 12 25
19 25 6 0 406 395 888 878 l876 877 7 53 c6 43 10 52 26 52 18 0 20 7 20 56 0
44 -3 55 -14 51 -20 -8 -36 13 -36 48 0 25 -12 44 -55 88 -30 30 -65 57 -77
59 -15 2 -24 11 -26 26 -3 17 -10 22 -32 22 -16 0 -32 -5 -36 -11 -4 -6 -20
-8 -40 -5 -111 20 -104 20 -104 -3z"/>
<path d="M13228 11199 c-4 -10 -104 -12 -140 -3 -24 5 -28 3 -28 -15 0 -12 -6
-21 -15 -21 -8 0 -15 4 -15 9 0 4 -11 6 -24 4 -17 -4 -23 -10 -19 -20 4 -9 -2
-16 -16 -20 -11 -3 -21 -12 -21 -19 0 -8 -7 -14 -15 -14 -8 0 -15 -7 -15 -16
0 -9 -9 -18 -20 -21 -11 -3 -20 -12 -20 -19 0 -8 -7 -14 -15 -14 -8 0 -15 -7
-15 -15 0 -8 -7 -15 -15 -15 -8 0 -15 -7 -15 -16 0 -9 -9 -18 -20 -21 -11 -3
-20 -12 -20 -19 0 -8 -9 -14 -20 -14 -13 0 -18 -5 -13 -16 4 -10 -1 -17 -16
-21 -11 -3 -21 -12 -21 -19 0 -8 -6 -14 -14 -14 -7 0 -16 -9 -19 -20 -3 -11
-12 -20 -21 -20 -9 0 -16 -7 -16 -15 0 -8 -7 -15 -15 -15 -8 0 -15 -7 -15 -15
0 -8 -9 -15 -20 -15 -13 0 -18 -5 -13 -16 4 -10 -1 -17 -16 -21 -11 -3 -21
-12 -21 -19 0 -8 -7 -14 -15 -14 -8 0 -15 -7 -15 -16 0 -9 -9 -18 -20 -21 -11
-3 -20 -12 -20 -19 0 -8 -7 -14 -15 -14 -8 0 -15 -7 -15 -15 0 -8 -7 -15 -15
-15 -8 0 -15 -7 -15 -16 0 -9 -9 -18 -20 -21 -11 -3 -20 -12 -20 -19 0 -8 -9
-14 -20 -14 -13 0 -18 -5 -13 -16 4 -10 -1 -17 -16 -21 -11 -3 -21 -12 -21
-19 0 -8 -6 -14 -14 -14 -7 0 -16 -9 -19 -20 -3 -11 -12 -20 -21 -20 -9 0 -16
-7 -16 -15 0 -8 -7 -15 -15 -15 -8 0 -15 -7 -15 -15 0 -8 -9 -15 -20 -15 -13
0 -18 -5 -13 -16 4 -10 -1 -17 -16 -21 -11 -3 -21 -12 -21 -19 0 -8 -6 -14
-14 -14 -7 0 -16 -9 -19 -20 -3 -11 -12 -20 -21 -20 -9 0 -16 -7 -16 -15 0 -8
-7 -15 -15 -15 -8 0 -15 -7 -15 -15 0 -8 -6 -15 -14 -15 -7 0 -16 -9 -19 -20
-3 -11 -12 -20 -21 -20 -9 0 -16 -7 -16 -15 0 -8 -9 -15 -20 -15 -13 0 -18 -5
-13 -16 4 -10 -1 -17 -16 -21 -11 -3 -21 -12 -21 -19 0 -8 -7 -14 -15 -14 -8
0 -15 -7 -15 -16 0 -9 -9 -18 -20 -21 -11 -3 -20 -12 -20 -19 0 -8 -7 -14 -15
-14 -8 0 -15 -7 -15 -15 0 -8 -9 -15 -20 -15 -13 0 -18 -5 -13 -16 4 -10 -1
-17 -16 -21 -11 -3 -21 -12 -21 -19 0 -8 -6 -14 -14 -14 -7 0 -16 -9 -19 -20
-3 -11 -12 -20 -21 -20 -9 0 -16 -7 -16 -15 0 -8 -7 -15 -15 -15 -8 0 -15 -6
-15 -14 0 -7 -9 -16 -20 -19 -11 -3 -20 -12 -20 -21 0 -9 -7 -16 -15 -16 -8 0
-15 -7 -15 -15 0 -8 -9 -15 -20 -15 -13 0 -18 -5 -13 -16 4 -10 -1 -17 -16
-21 -11 -3 -21 -12 -21 -19 0 -8 -6 -14 -14 -14 -7 0 -16 -9 -19 -20 -3 -11
-12 -20 -21 -20 -9 0 -16 -7 -16 -15 0 -8 -7 -15 -15 -15 -8 0 -15 -7 -15 -15
0 -8 -9 -15 -20 -15 -13 0 -18 -5 -13 -16 4 -10 -1 -17 -16 -21 -11 -3 -21
-12 -21 -19 0 -8 -6 -14 -14 -14 -7 0 -16 -9 -19 -20 -3 -11 -12 -20 -21 -20
-9 0 -16 -7 -16 -15 0 -8 -7 -15 -15 -15 -8 0 -15 -7 -15 -15 0 -8 -4 -15 -9
-15 -5 0 -11 -18 -15 -40 -3 -22 -14 -45 -25 -51 -15 -10 -17 -22 -13 -84 3
-47 1 -75 -7 -79 -20 -13 -12 -44 11 -48 15 -2 25 -12 28 -28 6 -30 64 -97 91
-105 11 -4 19 -14 19 -24 0 -16 11 -18 111 -17 75 1 113 -2 116 -10 6 -15 53
6 53 24 0 6 5 12 10 12 6 0 10 -4 10 -9 0 -12 50 11 50 24 0 13 45 55 59 55 6
0 11 7 11 15 0 8 7 15 15 15 8 0 15 7 15 16 0 9 9 18 20 21 11 3 20 12 20 19
0 8 7 14 15 14 8 0 15 7 15 16 0 9 9 18 20 21 11 3 17 10 14 15 -3 5 3 12 15
15 12 3 21 9 21 14 0 13 46 59 59 59 6 0 11 7 11 15 0 8 7 15 15 15 8 0 15 7
15 16 0 9 9 18 20 21 11 3 20 12 20 19 0 8 7 14 15 14 8 0 15 6 15 13 0 15 44
57 59 57 6 0 11 7 11 15 0 8 6 15 14 15 7 0 16 9 19 20 3 11 12 20 21 20 9 0
16 7 16 15 0 8 6 15 14 15 7 0 16 9 19 20 3 11 13 20 22 20 9 0 13 5 10 11 -4
6 2 13 14 16 12 3 21 9 21 14 0 13 46 59 59 59 6 0 11 7 11 15 0 8 6 15 14 15
7 0 16 9 19 20 3 11 12 20 21 20 9 0 16 7 16 15 0 8 7 15 15 15 8 0 15 6 15
13 0 15 44 57 59 57 6 0 11 7 11 15 0 8 6 15 14 15 7 0 16 9 19 20 3 11 12 20
21 20 9 0 16 7 16 15 0 8 6 15 14 15 7 0 16 9 19 20 3 11 13 20 22 20 9 0 13
5 10 11 -4 6 2 13 14 16 12 3 21 9 21 14 0 13 46 59 59 59 6 0 11 7 11 15 0 8
7 15 15 15 8 0 15 7 15 16 0 9 9 18 20 21 11 3 20 12 20 19 0 8 7 14 15 14 8
0 15 5 15 11 0 15 42 59 58 59 6 0 12 7 12 15 0 8 7 15 15 15 8 0 15 7 15 16
0 9 9 18 20 21 11 3 20 12 20 19 0 8 6 14 14 14 7 0 16 9 19 20 3 11 13 20 22
20 9 0 13 5 10 11 -4 6 2 13 14 16 12 3 21 9 21 14 0 13 46 59 59 59 6 0 11 7
11 15 0 8 6 15 14 15 7 0 16 9 19 20 3 11 12 20 21 20 9 0 16 7 16 15 0 8 7
15 15 15 8 0 15 6 15 13 0 15 44 57 59 57 6 0 11 7 11 15 0 8 7 15 15 15 8 0
15 7 15 16 0 9 9 18 20 21 11 3 20 14 20 25 0 35 32 123 51 140 28 24 27 104
-1 111 -15 4 -20 14 -20 36 0 51 -73 136 -132 155 -10 3 -18 14 -18 25 0 14
-9 20 -35 23 -19 2 -36 1 -37 -3z"/>
<path d="M14593 10740 c3 -14 0 -19 -12 -18 -33 3 -51 -2 -51 -15 0 -6 -394
-406 -875 -887 -481 -481 -875 -883 -875 -892 0 -9 -4 -20 -10 -23 -6 -4 -10
-55 -10 -120 0 -91 3 -114 15 -119 8 -3 15 -14 15 -24 0 -19 64 -85 91 -95 9
-3 19 -19 22 -36 7 -31 27 -44 27 -17 0 23 15 27 65 16 30 -7 59 -7 81 -1 29
8 36 6 48 -11 13 -19 16 -19 30 -5 9 9 16 22 16 30 0 17 27 31 32 17 5 -14 48
0 48 16 0 8 7 14 15 14 8 0 15 7 15 15 0 8 9 15 20 15 13 0 18 5 13 16 -4 10
1 17 16 21 11 3 21 12 21 19 0 8 7 14 15 14 8 0 15 7 15 16 0 9 9 18 20 21 11
3 20 12 20 19 0 8 7 14 15 14 8 0 15 6 15 14 0 7 9 16 20 19 11 3 20 12 20 21
0 9 7 16 15 16 8 0 15 7 15 15 0 8 9 15 20 15 13 0 18 5 13 16 -4 10 1 17 16
21 11 3 21 12 21 19 0 8 7 14 15 14 8 0 15 7 15 16 0 9 9 18 20 21 11 3 20 12
20 19 0 8 7 14 15 14 8 0 15 7 15 15 0 8 9 15 20 15 13 0 18 5 13 16 -4 10 1
17 16 21 11 3 21 12 21 19 0 8 6 14 14 14 7 0 16 9 19 20 3 11 12 20 21 20 9
0 16 7 16 15 0 8 7 15 15 15 8 0 15 6 15 14 0 8 9 18 20 21 11 3 20 13 20 21
0 8 7 14 15 14 8 0 15 7 15 15 0 8 9 15 20 15 13 0 18 5 13 16 -4 10 1 17 16
21 11 3 21 12 21 19 0 8 6 14 14 14 7 0 16 9 19 20 3 11 12 20 21 20 9 0 16 7
16 15 0 8 7 15 15 15 8 0 15 7 15 15 0 8 9 15 20 15 13 0 18 5 13 16 -4 10 1
17 16 21 11 3 21 12 21 19 0 8 7 14 15 14 8 0 15 7 15 16 0 9 9 18 20 21 11 3
20 12 20 19 0 8 7 14 15 14 8 0 15 6 15 14 0 8 9 18 20 21 11 3 20 13 20 21 0
8 7 14 15 14 8 0 15 7 15 15 0 8 9 15 20 15 13 0 18 5 13 16 -4 10 1 17 16 21
11 3 21 12 21 19 0 8 7 14 15 14 8 0 15 7 15 16 0 9 9 18 20 21 11 3 20 12 20
19 0 8 7 14 15 14 8 0 15 7 15 15 0 8 9 15 20 15 13 0 18 5 13 16 -4 10 1 17
16 21 11 3 21 12 21 19 0 8 6 14 14 14 7 0 16 9 19 20 3 11 12 20 21 20 9 0
16 7 16 15 0 8 7 15 15 15 8 0 15 6 15 14 0 8 9 18 20 21 11 3 20 13 20 21 0
8 7 14 15 14 8 0 15 7 15 15 0 8 9 15 20 15 13 0 18 5 13 16 -4 10 1 17 16 21
11 3 21 12 21 19 0 8 7 14 15 14 8 0 15 7 15 16 0 9 9 18 20 21 11 3 20 12 20
19 0 8 7 14 15 14 8 0 15 7 15 15 0 8 4 15 9 15 5 0 12 15 15 34 4 19 13 39
20 45 18 15 30 132 21 214 -6 59 -11 69 -54 115 -25 28 -58 55 -73 61 -18 7
-28 18 -28 31 0 15 -7 20 -29 20 -17 0 -33 -4 -36 -10 -3 -5 -30 -10 -60 -10
-30 0 -57 5 -60 10 -3 6 -18 10 -32 10 -20 0 -24 -4 -20 -20z"/>
</g>
</svg>
